General
Complete name                    : The Odessa File.mkv
Format                           : Matroska
File size                        : 892 MiB
Duration                         : 2h 3mn
Overall bit rate                 : 1 012 Kbps


Video
ID                               : 1
Format                           : AVC
Duration                         : 2h 3mn
Bit rate                         : 800 Kbps
Width                            : 702 pixels
Height                           : 428 pixels
Display aspect ratio             : 2.35:1
Frame rate                       : 25.000 fps
Resolution                       : 8 bits
Colorimetry                      : 4:2:0
Scan type                        : Progressive
Bits/(Pixel*Frame)               : 0.106
Stream size                      : 705 MiB (79%)
Writing library                  : x264 core 79


Audio
ID                               : 2
Format                           : AC-3
Format/Info                      : Audio Coding 3
Codec ID                         : A_AC3
Duration                         : 2h 3mn
Bit rate mode                    : Constant
Bit rate                         : 192 Kbps
Channel(s)                       : 2 channels
Channel positions                : L R
Sampling rate                    : 48.0 KHz
Stream size                      : 169 MiB (19%)
Language                         : English

Text #1
Language                         : English

Text #2
Language                         : French

Text #3
Language                         : German

Text #4
Language                         : Italian

Text #5
Language                         : Spanish

Text #6
Language                         : Dutch

Text #7
Language                         : Arabic

Text #8
Language                         : Bulgarian

Text #9
Language                         : Czech

Text #10
Language                         : Danish

Text #11
Language                         : Finnish

Text #12
Language                         : Greek

Text #13
Language                         : ????xxxx????

Text #14
Language                         : Hindi

Text #15
Language                         : Hungarian

Text #16
Language                         : Icelandic

Text #17
Language                         : Norwegian

Text #18
Language                         : Polish

Text #19
Language                         : Portuguese

Text #20
Language                         : Swedish

Text #21
Language                         : Turkish



